<mxfile host="app.diagrams.net" modified="2023-06-13T22:45:13.116Z" agent="Mozilla/5.0 (Macintosh; Intel Mac OS X 10_15_7) AppleWebKit/537.36 (KHTML, like Gecko) Chrome/114.0.0.0 Safari/537.36" etag="A8D1GiKoO44SSV_yeRhJ" version="21.3.5" type="github">
  <diagram name="Page-1" id="s_eSsweGi-FAtKVLEghJ">
    <mxGraphModel dx="1193" dy="739" grid="1" gridSize="10" guides="1" tooltips="1" connect="1" arrows="1" fold="1" page="1" pageScale="1" pageWidth="850" pageHeight="1100" math="0" shadow="0">
      <root>
        <mxCell id="0" />
        <mxCell id="1" parent="0" />
        <mxCell id="WzcJxjCiVlkziBhDOQVK-10" value="American Airline virtual network&lt;span style=&quot;color: rgb(0, 0, 0); font-size: 20px; text-align: start;&quot;&gt;&lt;/span&gt;" style="rounded=0;whiteSpace=wrap;html=1;fillColor=none;labelPosition=center;verticalLabelPosition=top;align=center;verticalAlign=bottom;fontSize=20;" vertex="1" parent="1">
          <mxGeometry x="55" y="100" width="760" height="410" as="geometry" />
        </mxCell>
        <mxCell id="WzcJxjCiVlkziBhDOQVK-5" value="virtual cluster&lt;span style=&quot;color: rgb(0, 0, 0); font-size: 15px; text-align: start;&quot;&gt;&lt;/span&gt;" style="rounded=1;whiteSpace=wrap;html=1;fillColor=none;dashed=1;movable=1;resizable=1;rotatable=1;deletable=1;editable=1;locked=0;connectable=1;labelPosition=center;verticalLabelPosition=top;align=center;verticalAlign=bottom;arcSize=0;labelBackgroundColor=default;fontSize=15;" vertex="1" parent="1">
          <mxGeometry x="170" y="150" width="520" height="230" as="geometry" />
        </mxCell>
        <mxCell id="WzcJxjCiVlkziBhDOQVK-6" value="VM1" style="image;aspect=fixed;perimeter=ellipsePerimeter;html=1;align=center;shadow=0;dashed=0;spacingTop=3;image=img/lib/active_directory/database_server.svg;" vertex="1" parent="1">
          <mxGeometry x="227" y="260" width="41" height="50" as="geometry" />
        </mxCell>
        <mxCell id="WzcJxjCiVlkziBhDOQVK-7" value="VM2" style="image;aspect=fixed;perimeter=ellipsePerimeter;html=1;align=center;shadow=0;dashed=0;spacingTop=3;image=img/lib/active_directory/database_server.svg;" vertex="1" parent="1">
          <mxGeometry x="330" y="260" width="41" height="50" as="geometry" />
        </mxCell>
        <mxCell id="WzcJxjCiVlkziBhDOQVK-8" value="VM3" style="image;aspect=fixed;perimeter=ellipsePerimeter;html=1;align=center;shadow=0;dashed=0;spacingTop=3;image=img/lib/active_directory/database_server.svg;" vertex="1" parent="1">
          <mxGeometry x="432" y="260" width="41" height="50" as="geometry" />
        </mxCell>
        <mxCell id="WzcJxjCiVlkziBhDOQVK-9" value="VMn&lt;br&gt;" style="image;aspect=fixed;perimeter=ellipsePerimeter;html=1;align=center;shadow=0;dashed=0;spacingTop=3;image=img/lib/active_directory/database_server.svg;" vertex="1" parent="1">
          <mxGeometry x="590" y="265" width="41" height="50" as="geometry" />
        </mxCell>
        <mxCell id="WzcJxjCiVlkziBhDOQVK-27" style="edgeStyle=orthogonalEdgeStyle;rounded=0;orthogonalLoop=1;jettySize=auto;html=1;entryX=0.5;entryY=1;entryDx=0;entryDy=0;" edge="1" parent="1" source="WzcJxjCiVlkziBhDOQVK-14" target="WzcJxjCiVlkziBhDOQVK-5">
          <mxGeometry relative="1" as="geometry" />
        </mxCell>
        <mxCell id="WzcJxjCiVlkziBhDOQVK-14" value="VNet local endpoint" style="verticalLabelPosition=bottom;shadow=0;dashed=0;align=center;html=1;verticalAlign=top;shape=mxgraph.electrical.abstract.summation_point;" vertex="1" parent="1">
          <mxGeometry x="407.88" y="425.76" width="34.24" height="34.24" as="geometry" />
        </mxCell>
        <mxCell id="WzcJxjCiVlkziBhDOQVK-11" value="ASMI subnet" style="image;aspect=fixed;perimeter=ellipsePerimeter;html=1;align=left;shadow=0;dashed=0;spacingTop=3;image=img/lib/active_directory/secure.svg;labelPosition=right;verticalLabelPosition=middle;verticalAlign=middle;" vertex="1" parent="1">
          <mxGeometry x="220" y="170" width="32" height="50" as="geometry" />
        </mxCell>
        <mxCell id="WzcJxjCiVlkziBhDOQVK-20" value="" style="group" vertex="1" connectable="0" parent="1">
          <mxGeometry x="50" y="560" width="124.24000000000001" height="148" as="geometry" />
        </mxCell>
        <mxCell id="WzcJxjCiVlkziBhDOQVK-13" value="On-premise App" style="shape=mxgraph.cisco.buildings.generic_building;html=1;pointerEvents=1;dashed=0;fillColor=#036897;strokeColor=#ffffff;strokeWidth=2;verticalLabelPosition=bottom;verticalAlign=top;align=center;outlineConnect=0;" vertex="1" parent="WzcJxjCiVlkziBhDOQVK-20">
          <mxGeometry x="70" y="72" width="50.29" height="76" as="geometry" />
        </mxCell>
        <mxCell id="WzcJxjCiVlkziBhDOQVK-12" value="" style="shape=image;verticalLabelPosition=bottom;labelBackgroundColor=default;verticalAlign=top;aspect=fixed;imageAspect=0;image=https://s202.q4cdn.com/986123435/files/doc_downloads/logos/american-airlines/THUMB-aa_aa__ahz_4cp_grd_pos-(1).png;" vertex="1" parent="WzcJxjCiVlkziBhDOQVK-20">
          <mxGeometry width="124.24" height="81" as="geometry" />
        </mxCell>
        <mxCell id="WzcJxjCiVlkziBhDOQVK-26" style="edgeStyle=orthogonalEdgeStyle;rounded=0;orthogonalLoop=1;jettySize=auto;html=1;dashed=1;dashPattern=1 2;" edge="1" parent="1" source="WzcJxjCiVlkziBhDOQVK-12" target="WzcJxjCiVlkziBhDOQVK-14">
          <mxGeometry relative="1" as="geometry">
            <Array as="points">
              <mxPoint x="350" y="601" />
              <mxPoint x="350" y="443" />
            </Array>
          </mxGeometry>
        </mxCell>
        <mxCell id="WzcJxjCiVlkziBhDOQVK-29" value="&lt;font style=&quot;font-size: 29px;&quot;&gt;...&lt;/font&gt;" style="text;html=1;strokeColor=none;fillColor=none;align=center;verticalAlign=middle;whiteSpace=wrap;rounded=0;" vertex="1" parent="1">
          <mxGeometry x="500" y="280" width="60" height="30" as="geometry" />
        </mxCell>
        <mxCell id="WzcJxjCiVlkziBhDOQVK-37" value="" style="group" vertex="1" connectable="0" parent="1">
          <mxGeometry x="630" y="560" width="164.24" height="121" as="geometry" />
        </mxCell>
        <mxCell id="WzcJxjCiVlkziBhDOQVK-32" value="Cloud App" style="verticalLabelPosition=bottom;html=1;verticalAlign=top;align=center;strokeColor=none;fillColor=#00BEF2;shape=mxgraph.azure.azure_subscription;" vertex="1" parent="WzcJxjCiVlkziBhDOQVK-37">
          <mxGeometry x="107.10000000000002" y="81" width="57.14" height="40" as="geometry" />
        </mxCell>
        <mxCell id="WzcJxjCiVlkziBhDOQVK-31" value="" style="sketch=0;aspect=fixed;pointerEvents=1;shadow=0;dashed=0;html=1;strokeColor=none;labelPosition=center;verticalLabelPosition=bottom;verticalAlign=top;align=center;fillColor=#00BEF2;shape=mxgraph.mscae.enterprise.app_generic" vertex="1" parent="WzcJxjCiVlkziBhDOQVK-37">
          <mxGeometry x="114.24000000000001" y="42" width="50" height="39" as="geometry" />
        </mxCell>
        <mxCell id="WzcJxjCiVlkziBhDOQVK-33" value="" style="sketch=0;aspect=fixed;pointerEvents=1;shadow=0;dashed=0;html=1;strokeColor=none;labelPosition=center;verticalLabelPosition=bottom;verticalAlign=top;align=center;fillColor=#00BEF2;shape=mxgraph.mscae.enterprise.app_generic" vertex="1" parent="WzcJxjCiVlkziBhDOQVK-37">
          <mxGeometry x="74.24000000000001" y="65.5" width="50" height="39" as="geometry" />
        </mxCell>
        <mxCell id="WzcJxjCiVlkziBhDOQVK-34" value="" style="shape=image;verticalLabelPosition=bottom;labelBackgroundColor=default;verticalAlign=top;aspect=fixed;imageAspect=0;image=https://s202.q4cdn.com/986123435/files/doc_downloads/logos/american-airlines/THUMB-aa_aa__ahz_4cp_grd_pos-(1).png;" vertex="1" parent="WzcJxjCiVlkziBhDOQVK-37">
          <mxGeometry width="124.24" height="81" as="geometry" />
        </mxCell>
        <mxCell id="WzcJxjCiVlkziBhDOQVK-38" style="edgeStyle=orthogonalEdgeStyle;rounded=0;orthogonalLoop=1;jettySize=auto;html=1;entryX=1;entryY=0.5;entryDx=0;entryDy=0;entryPerimeter=0;dashed=1;dashPattern=1 1;" edge="1" parent="1" source="WzcJxjCiVlkziBhDOQVK-34" target="WzcJxjCiVlkziBhDOQVK-14">
          <mxGeometry relative="1" as="geometry">
            <Array as="points">
              <mxPoint x="500" y="601" />
              <mxPoint x="500" y="443" />
            </Array>
          </mxGeometry>
        </mxCell>
        <mxCell id="WzcJxjCiVlkziBhDOQVK-39" value="" style="shape=flexArrow;endArrow=classic;startArrow=classic;html=1;rounded=0;endWidth=18.18181818181818;endSize=5.818181818181818;" edge="1" parent="1">
          <mxGeometry width="100" height="100" relative="1" as="geometry">
            <mxPoint x="180" y="559.09" as="sourcePoint" />
            <mxPoint x="340" y="559.09" as="targetPoint" />
          </mxGeometry>
        </mxCell>
        <mxCell id="WzcJxjCiVlkziBhDOQVK-40" value="Azure ExpressRoute&lt;span style=&quot;font-size: medium; text-align: start;&quot;&gt;&lt;/span&gt;" style="edgeLabel;html=1;align=center;verticalAlign=middle;resizable=0;points=[];" vertex="1" connectable="0" parent="WzcJxjCiVlkziBhDOQVK-39">
          <mxGeometry x="0.3375" relative="1" as="geometry">
            <mxPoint x="-29" as="offset" />
          </mxGeometry>
        </mxCell>
        <mxCell id="WzcJxjCiVlkziBhDOQVK-41" value="" style="shape=flexArrow;endArrow=classic;startArrow=classic;html=1;rounded=0;endWidth=18.18181818181818;endSize=5.818181818181818;" edge="1" parent="1">
          <mxGeometry width="100" height="100" relative="1" as="geometry">
            <mxPoint x="490" y="569.09" as="sourcePoint" />
            <mxPoint x="650" y="569.09" as="targetPoint" />
          </mxGeometry>
        </mxCell>
        <mxCell id="WzcJxjCiVlkziBhDOQVK-42" value="peered virtual network&lt;span style=&quot;font-size: medium; text-align: start;&quot;&gt;&lt;/span&gt;" style="edgeLabel;html=1;align=center;verticalAlign=middle;resizable=0;points=[];" vertex="1" connectable="0" parent="WzcJxjCiVlkziBhDOQVK-41">
          <mxGeometry x="0.3375" relative="1" as="geometry">
            <mxPoint x="-29" as="offset" />
          </mxGeometry>
        </mxCell>
        <mxCell id="WzcJxjCiVlkziBhDOQVK-43" value="" style="shape=image;verticalLabelPosition=bottom;labelBackgroundColor=default;verticalAlign=top;aspect=fixed;imageAspect=0;image=https://s202.q4cdn.com/986123435/files/doc_downloads/logos/american-airlines/THUMB-aa_aa__ahz_4cp_grd_pos-(1).png;" vertex="1" parent="1">
          <mxGeometry x="174.24" y="30" width="124.24" height="81" as="geometry" />
        </mxCell>
      </root>
    </mxGraphModel>
  </diagram>
</mxfile>
